<svg width="507" height="346" viewBox="0 0 507 346" fill="none" xmlns="http://www.w3.org/2000/svg">
<path d="M247.241 346C374.901 346 478.39 340.239 478.39 333.132C478.39 326.025 374.901 320.264 247.241 320.264C119.582 320.264 16.0928 326.025 16.0928 333.132C16.0928 340.239 119.582 346 247.241 346Z" fill="#AAD2B5" fill-opacity="0.4"/>
<path d="M461.526 324.64C476.012 323.869 492.053 320.098 500.917 310.933C505.282 306.419 507.298 300.643 506.114 294.225C504.776 286.976 498.969 280.406 497.684 273.132C496.358 265.642 502.23 262.911 504.897 256.999C507.917 250.312 506.367 241.826 500.664 235.143C497.78 231.765 493.9 228.91 489.511 227.147C484.828 225.267 479.591 225.56 476.972 220.817C475.39 217.95 475.546 214.841 476.084 211.99C477.466 204.692 481.085 198.146 483.988 191.37C485.145 188.68 486.057 185.326 483.683 182.723C478.868 177.45 467.156 178.739 462.076 180.756C456.622 182.92 452.694 187.214 451.461 192.354C450.369 196.901 451.067 202.435 447.164 205.395C444.465 207.443 440.304 207.604 436.742 208.56C430.352 210.275 429.778 215.472 431.489 220.922C433.557 227.512 435.714 234.107 431.782 239.725C428.324 244.669 421.633 247.184 417.303 251.557C415.849 253.027 414.641 254.798 414.645 256.863C414.665 264.168 425.119 269.425 425.954 277.096C426.356 280.779 425.613 284.309 425.135 287.86C423.504 299.969 428.155 312.399 441.244 321.118C453.389 329.211 470.14 331.178 481.864 325.889" fill="#AAD2B5" fill-opacity="0.4"/>
<path d="M454.084 321.953C454.06 321.953 454.035 321.953 454.011 321.949C453.598 321.909 453.292 321.544 453.333 321.13L461.815 231.649C461.855 231.235 462.257 230.918 462.634 230.97C463.048 231.01 463.353 231.376 463.313 231.789L454.831 321.27C454.795 321.66 454.469 321.953 454.084 321.953Z" fill="white"/>
<path d="M458.325 277.213C458.036 277.213 457.759 277.044 457.634 276.759C457.469 276.377 457.642 275.936 458.024 275.767L483.334 264.734C483.715 264.57 484.157 264.742 484.326 265.124C484.49 265.505 484.318 265.947 483.936 266.116L458.626 277.148C458.526 277.193 458.425 277.213 458.325 277.213Z" fill="white"/>
<path d="M459.827 258.686C459.538 258.686 459.261 258.517 459.136 258.232C458.971 257.851 459.144 257.409 459.526 257.24L484.836 246.208C485.217 246.047 485.659 246.216 485.828 246.597C485.992 246.979 485.82 247.421 485.438 247.589L460.128 258.622C460.032 258.666 459.931 258.686 459.827 258.686Z" fill="white"/>
<path d="M459.136 268.642C459.035 268.642 458.931 268.622 458.835 268.578L436.179 258.626C435.798 258.457 435.625 258.015 435.794 257.634C435.962 257.252 436.408 257.088 436.786 257.248L459.441 267.2C459.823 267.369 459.995 267.811 459.827 268.192C459.702 268.473 459.425 268.642 459.136 268.642Z" fill="white"/>
<path d="M440.232 301.932C440.312 301.651 440.38 301.37 440.445 301.085C441.296 297.109 440.035 293.342 436.774 291.02C434.199 289.185 430.01 288.619 429.006 285.137C428.536 283.506 429.087 281.759 429.777 280.209C430.468 278.659 431.32 277.124 431.476 275.434C431.633 273.743 430.858 271.807 429.239 271.285C428.067 270.907 426.793 271.345 425.568 271.225C421.002 270.763 422.56 265.618 421.315 262.682C420.785 261.437 419.673 260.353 418.323 260.24C416.885 260.116 415.608 261.06 414.355 261.77C413.102 262.481 411.407 262.955 410.307 262.023C409.154 261.048 409.427 259.204 409.994 257.798C411.379 254.348 413.849 251.453 416.456 248.802C417.528 247.714 418.689 246.541 418.906 245.027C419.183 243.107 417.805 241.304 416.199 240.219C412.243 237.545 407.508 235.733 402.905 234.569C397.957 233.316 387.125 233.055 387.688 241.131C388.025 245.947 395.206 253.581 389.704 257.561C387.009 259.509 380.691 258.891 382.43 263.911C382.792 264.959 383.33 265.951 383.579 267.036C384.543 271.18 381.177 274.425 381.005 278.394C380.86 281.715 384.097 284.366 386.306 286.358C387.31 287.261 388.214 288.506 388.033 289.844C387.929 290.627 387.467 291.314 387.25 292.077C386.848 293.49 387.33 294.988 387.427 296.454C387.635 299.587 384.748 300.021 383.712 302.511C381.426 308.005 392.35 307.8 394.66 310.756C396.576 313.214 396.158 316.592 397.559 319.274C400.588 325.066 410.13 326.552 415.93 327.038C419.761 327.359 423.882 326.66 426.769 324.122C429.926 321.347 430.958 317.154 432.802 313.543C434.958 309.29 438.878 306.68 440.232 301.932Z" fill="#16C173"/>
<path d="M444.915 319.037C443.288 315.17 443.758 310.784 444.256 306.615C444.421 305.222 444.605 303.784 445.332 302.583C446.003 301.479 447.276 300.599 448.613 300.8C448.766 300.824 448.923 300.856 449.067 300.804C449.32 300.708 449.397 300.394 449.429 300.129C449.646 298.326 449.236 296.603 449.228 294.812C449.22 292.458 451.509 294.253 452.208 295.121C452.75 295.796 453.192 296.547 453.746 297.209C453.81 297.286 453.907 297.37 453.999 297.334C454.092 297.298 454.104 297.169 454.104 297.069C454.108 296.587 454.256 296.105 454.521 295.703C454.81 295.266 455.232 294.928 455.574 294.527C456.594 293.338 456.164 291.189 456.947 289.743C457.694 288.362 459.064 287.145 460.742 287.49C463.514 288.061 463.911 291.868 463.365 294.643C463.116 295.912 462.947 297.535 464.048 298.209C465.216 298.924 471.723 293.567 473.964 292.153C474.992 291.506 476.406 290.92 477.329 291.707C478.221 292.47 477.924 293.904 477.454 294.98C476.916 296.213 479.434 297.041 480.064 297.836C482.394 300.764 481.125 305.74 479.554 308.684C477.912 311.764 475.482 314.463 472.903 316.788C470.791 318.696 475.502 323.194 473.65 325.379C470.658 328.901 458.417 328.616 453.69 328.166C449.67 327.781 447.376 324.323 445.778 320.973C445.473 320.335 445.188 319.688 444.915 319.037Z" fill="#297373"/>
<path d="M449.975 326.994C449.838 326.994 449.702 326.957 449.577 326.881C449.224 326.66 449.116 326.198 449.336 325.845L463.068 303.832C463.289 303.479 463.759 303.374 464.104 303.591C464.457 303.812 464.566 304.274 464.345 304.627L450.614 326.64C450.469 326.865 450.224 326.994 449.975 326.994Z" fill="white"/>
<path d="M460.1 310.752C459.738 310.752 459.417 310.487 459.357 310.117C459.293 309.708 459.57 309.322 459.983 309.258L467.51 308.061C467.923 307.989 468.309 308.274 468.373 308.688C468.438 309.097 468.16 309.483 467.747 309.547L460.22 310.744C460.18 310.752 460.14 310.752 460.1 310.752Z" fill="white"/>
<path d="M423.436 329.283C423.123 329.283 422.834 329.086 422.725 328.777L400.961 265.674C400.825 265.281 401.034 264.851 401.427 264.718C401.817 264.582 402.25 264.791 402.383 265.184L424.147 328.287C424.283 328.68 424.075 329.11 423.681 329.243C423.601 329.267 423.516 329.283 423.436 329.283Z" fill="white"/>
<path d="M414.536 304.977C414.512 304.977 414.484 304.977 414.46 304.973L400.295 303.555C399.881 303.515 399.58 303.145 399.62 302.732C399.66 302.318 400.037 302.021 400.443 302.057L414.608 303.475C415.022 303.515 415.323 303.884 415.283 304.298C415.243 304.688 414.918 304.977 414.536 304.977Z" fill="white"/>
<path d="M408.672 286.374C408.628 286.374 408.58 286.37 408.536 286.362L396.523 284.149C396.114 284.072 395.845 283.683 395.921 283.273C395.997 282.864 396.383 282.594 396.796 282.671L408.809 284.884C409.219 284.96 409.488 285.35 409.411 285.759C409.347 286.121 409.03 286.374 408.672 286.374Z" fill="white"/>
<path d="M411.592 294.8C411.407 294.8 411.223 294.731 411.078 294.599C410.777 294.314 410.761 293.84 411.042 293.535L421.002 282.896C421.287 282.594 421.761 282.578 422.066 282.86C422.368 283.145 422.384 283.619 422.102 283.924L412.142 294.563C411.994 294.719 411.793 294.8 411.592 294.8Z" fill="white"/>
<path d="M105.409 260.334H18.0569C8.12478 260.334 0 252.21 0 242.278V28.4628C0 18.5308 8.12478 10.406 18.0569 10.406H105.409C115.341 10.406 123.466 18.5308 123.466 28.4628V242.274C123.466 252.206 115.341 260.334 105.409 260.334Z" fill="#AAD2B5" fill-opacity="0.4"/>
<path d="M97.5736 237.016H25.8884C15.9563 237.016 7.83154 228.892 7.83154 218.959V36.8647C7.83154 26.9327 15.9563 18.8079 25.8884 18.8079H97.5736C107.506 18.8079 115.63 26.9327 115.63 36.8647V218.959C115.635 228.888 107.506 237.016 97.5736 237.016Z" fill="white"/>
<path d="M73.364 16.1211H50.1021C49.5358 16.1211 49.074 15.6592 49.074 15.0929V15.0929C49.074 14.5266 49.5358 14.0648 50.1021 14.0648H73.364C73.9303 14.0648 74.3921 14.5266 74.3921 15.0929V15.0929C74.3921 15.6592 73.9262 16.1211 73.364 16.1211Z" fill="#AAD2B5" fill-opacity="0.4"/>
<path d="M61.733 254.31C65.2708 254.31 68.1388 251.442 68.1388 247.904C68.1388 244.366 65.2708 241.498 61.733 241.498C58.1951 241.498 55.3271 244.366 55.3271 247.904C55.3271 251.442 58.1951 254.31 61.733 254.31Z" fill="#16C173"/>
<path d="M89.2762 210.979H34.1859C27.9327 210.979 22.812 205.863 22.812 199.605V199.605C22.812 193.352 27.9287 188.231 34.1859 188.231H89.2762C95.5294 188.231 100.65 193.348 100.65 199.605V199.605C100.65 205.859 95.5334 210.979 89.2762 210.979Z" fill="#297373"/>
<path d="M101.494 54.3352H68.3036C66.7895 54.3352 65.5525 53.0982 65.5525 51.5841V51.5841C65.5525 50.07 66.7895 48.833 68.3036 48.833H101.494C103.008 48.833 104.245 50.07 104.245 51.5841V51.5841C104.245 53.0982 103.008 54.3352 101.494 54.3352Z" fill="#16C173"/>
<path d="M101.494 66.9381H68.3036C66.7895 66.9381 65.5525 65.7011 65.5525 64.187V64.187C65.5525 62.6729 66.7895 61.4359 68.3036 61.4359H101.494C103.008 61.4359 104.245 62.6729 104.245 64.187V64.187C104.245 65.6971 103.008 66.9381 101.494 66.9381Z" fill="#16C173"/>
<path d="M61.2591 171.608V171.608C60.9097 171.323 60.8535 170.801 61.1426 170.452L68.6891 161.186C68.9742 160.837 69.4963 160.781 69.8457 161.07V161.07C70.1951 161.355 70.2514 161.877 69.9622 162.227L62.4158 171.492C62.1306 171.841 61.6085 171.894 61.2591 171.608Z" fill="#AAD2B5" fill-opacity="0.4"/>
<path d="M62.2029 171.608V171.608C62.5523 171.323 62.6086 170.801 62.3194 170.452L54.7729 161.186C54.4878 160.837 53.9657 160.781 53.6163 161.07V161.07C53.2669 161.355 53.2106 161.877 53.4998 162.227L61.0463 171.492C61.3314 171.841 61.8535 171.894 62.2029 171.608Z" fill="#AAD2B5" fill-opacity="0.4"/>
<path fill-rule="evenodd" clip-rule="evenodd" d="M32.1497 49.0901H48.5559H48.5599V47.584C48.5599 41.7243 44.881 36.9571 40.3548 36.9571C35.8285 36.9571 32.1497 41.7243 32.1497 47.584V49.0901ZM45.4392 46.0819H35.2662C35.7561 42.644 37.8888 39.9652 40.3507 39.9693C42.8166 39.9693 44.9492 42.644 45.4392 46.0819Z" fill="#AAD2B5" fill-opacity="0.4"/>
<path d="M33.4188 45.6244C30.8565 45.6244 28.76 47.263 28.76 49.2631L24.3984 74.8543C24.3984 76.8544 26.4949 78.493 29.0572 78.493H48.0298L42.9372 45.6244H33.4188Z" fill="#16C173"/>
<path d="M54.9579 74.85L51.2188 49.2587C51.2188 47.2587 49.1223 45.6201 46.56 45.6201H42.9333L48.0259 78.4887H50.2951C52.8614 78.4887 54.9579 76.8541 54.9579 74.85Z" fill="#11151C"/>
<path d="M101.494 113.281H68.3036C66.7895 113.281 65.5525 112.044 65.5525 110.53V110.53C65.5525 109.016 66.7895 107.779 68.3036 107.779H101.494C103.008 107.779 104.245 109.016 104.245 110.53V110.53C104.245 112.04 103.008 113.281 101.494 113.281Z" fill="#16C173"/>
<path d="M101.494 125.88H68.3036C66.7895 125.88 65.5525 124.643 65.5525 123.129V123.129C65.5525 121.615 66.7895 120.378 68.3036 120.378H101.494C103.008 120.378 104.245 121.615 104.245 123.129V123.129C104.245 124.643 103.008 125.88 101.494 125.88Z" fill="#16C173"/>
<path fill-rule="evenodd" clip-rule="evenodd" d="M32.1497 108.032H48.5559H48.5599V106.526C48.5599 100.666 44.881 95.8989 40.3548 95.8989C35.8285 95.8989 32.1497 100.666 32.1497 106.526V108.032ZM45.4392 105.024H35.2662C35.7561 101.586 37.8888 98.9111 40.3507 98.9111C42.8166 98.9111 44.9492 101.586 45.4392 105.024Z" fill="#AAD2B5" fill-opacity="0.4"/>
<path d="M33.4188 104.566C30.8565 104.566 28.76 106.205 28.76 108.205L24.3984 133.796C24.3984 135.796 26.4949 137.435 29.0572 137.435H48.0298L42.9372 104.566H33.4188V104.566Z" fill="#16C172"/>
<path d="M54.9579 133.796L51.2188 108.205C51.2188 106.205 49.1223 104.566 46.56 104.566H42.9333L48.0259 137.435H50.2951C52.8614 137.435 54.9579 135.796 54.9579 133.796Z" fill="#297373"/>
<path d="M53.5721 82.0631C57.1743 82.0631 60.0944 79.143 60.0944 75.5408C60.0944 71.9386 57.1743 69.0185 53.5721 69.0185C49.9699 69.0185 47.0498 71.9386 47.0498 75.5408C47.0498 79.143 49.9699 82.0631 53.5721 82.0631Z" fill="#297373"/>
<path d="M53.5721 141.892C57.1743 141.892 60.0944 138.972 60.0944 135.37C60.0944 131.768 57.1743 128.848 53.5721 128.848C49.9699 128.848 47.0498 131.768 47.0498 135.37C47.0498 138.972 49.9699 141.892 53.5721 141.892Z" fill="#297373"/>
<path d="M61.7332 184.239V184.239C59.3195 184.239 57.3435 182.263 57.3435 179.85V179.85C57.3435 177.436 59.3195 175.46 61.7332 175.46V175.46C64.147 175.46 66.1229 177.436 66.1229 179.85V179.85C66.1229 182.267 64.147 184.239 61.7332 184.239Z" fill="#16C173"/>
<path d="M198.573 130.96C209.979 118.121 234.952 91.0996 245.213 77.3802C245.751 76.6613 246.302 75.9023 246.41 75.0227C246.547 73.9102 245.956 72.854 245.474 71.8338C244.338 69.4321 243.731 66.7975 243.711 64.1549C243.699 62.8456 243.852 61.468 244.619 60.3877C245.386 59.3113 246.924 58.6607 248.137 59.235C247.912 63.4801 248.679 67.7735 250.362 71.6973C251.45 69.9703 252.539 68.2474 253.623 66.5204C254.732 72.2796 250.009 77.3401 247.478 82.6575C246.197 85.3524 229.711 104.233 228.008 106.699C218.526 120.422 216.084 125.571 206.65 134.137C204.148 136.41 201.557 138.74 198.36 139.933C195.163 141.129 191.167 140.937 188.741 138.583L198.573 130.96Z" fill="#EAC2AB"/>
<path d="M319.22 212.666L328.726 231.353L322.549 235.591L313.838 215.425C313.834 215.425 316.907 212.65 319.22 212.666Z" fill="#EAC2AB"/>
<path d="M356.804 240.663C356.804 240.663 351.47 242.326 341.253 242.96C331.036 243.595 317.433 242.346 315.027 241.49C311.368 240.193 314.176 228.944 317.581 228.968C320.987 228.992 322.304 233.611 328.317 229.542C333.466 226.056 337.566 232.727 346.522 234.562C355.478 236.398 359.105 237.137 356.804 240.663Z" fill="#297373"/>
<path d="M299.003 204.124C300.167 206.835 301.003 209.694 302.412 212.289C304.392 215.935 307.597 219.486 306.947 223.582C306.706 225.116 306.095 227.096 307.421 227.904C308.408 228.506 309.694 227.815 310.465 226.952C312.132 225.08 312.887 222.257 315.156 221.196C317.184 220.249 319.598 221.116 321.795 220.698C325.485 219.996 327.811 215.871 331.514 215.224C331.441 214.18 330.168 213.783 329.212 213.357C327.192 212.457 325.903 210.485 324.734 208.61C320.525 201.858 316.397 195.007 313.457 187.617C312.834 186.059 312.264 184.464 311.364 183.051C310.565 181.785 309.525 180.693 308.441 179.661C306.284 177.613 303.918 175.785 301.396 174.215C297.97 172.078 293.348 170.219 289.504 172.416C286.464 174.155 283.962 178.621 284.544 182.147C285.195 186.091 289.002 189.24 291.404 192.167C294.404 195.834 297.127 199.762 299.003 204.124Z" fill="#16C173"/>
<path d="M342.675 174.231L365.045 176.982L364.88 184.693L341.715 180.412C341.715 180.408 341.209 176.187 342.675 174.231Z" fill="#EAC2AB"/>
<path d="M381.323 151.387C381.323 151.387 381.544 157.166 379.323 167.464C377.102 177.761 374.174 189.119 372.106 190.734C370.037 192.348 357.165 189.995 358.149 186.633C359.133 183.271 364.29 183.368 361.768 176.191C359.607 170.042 367.676 168.01 372.102 159.708C376.531 151.407 378.315 148.045 381.323 151.387Z" fill="#297373"/>
<path d="M243.479 185.316C237.253 187.396 235.061 193.734 233.008 199.971C231.522 204.493 230.707 209.24 230.607 213.999C230.546 216.69 230.868 219.706 232.916 221.449C234.049 222.409 235.543 222.823 237.009 223.068C247.563 224.847 258.174 219.333 265.825 211.851C273.476 204.369 278.946 194.987 285.468 186.5C288.376 182.717 292.047 178.813 296.81 178.52C302.228 178.187 306.613 182.581 311.481 184.978C316.702 187.549 322.514 189.027 328.253 189.87C334.177 190.738 337.454 191.063 343.137 193.336C345.354 194.224 347.699 197.457 349.767 198.039C355.968 199.786 351.856 196.437 352.727 194.842C353.848 192.798 354.788 189.412 354.229 187.497C353.262 184.191 352.884 180.52 353.017 177.082C353.101 174.878 354.936 173.307 355.968 171.44C358.037 166.926 344.643 168.761 339.121 168.528C332.679 168.259 326.349 166.757 320.14 165.014C313.176 163.058 306.296 160.789 299.537 158.214C294.637 156.351 289.476 154.287 284.315 155.19C277.267 156.423 272.435 162.676 267.359 167.717C261.475 173.56 257.608 176.825 249.941 179.982" fill="#15AB66"/>
<path d="M180.3 126.197L183.866 137.426L193.457 139.535L190.573 134.832C190.573 134.832 185.854 127.004 187.561 122.077C189.268 117.149 180.3 126.197 180.3 126.197Z" fill="#D4A79A"/>
<path d="M183.115 92.457C185.649 93.0073 189.918 95.8146 190.685 98.2886C191.196 99.9272 191.726 101.674 192.818 103.036C194.208 104.775 196.176 105.602 197.995 106.767C199.782 107.911 197.288 108.397 196.509 109.466C195.637 110.662 195.573 112.024 195.449 113.518C195.196 116.594 195.862 122.39 194.003 124.936C191.497 128.366 182.215 126.98 179.207 125.294C178.609 124.96 171.697 121.241 171.857 120.828L183.115 92.457Z" fill="#EAC2AB"/>
<path d="M166.696 94.8708C167.211 94.1961 166.745 93.2362 166.805 92.3888C166.881 91.3044 167.825 90.5012 168.729 89.8947C173.697 86.5452 179.858 85.003 185.818 85.6134C188.195 85.8584 187.569 86.4488 189.601 87.7099C192.195 89.3164 195.44 95.2563 191.641 97.654C187.629 100.188 182.878 97.5335 186.882 98.136C184.54 97.7866 183.428 99.7826 182.159 101.698C177.311 109.012 177.793 118.076 180.303 126.197C166.885 122.506 158.6 112.45 162.05 101.819C163.536 97.2403 167.186 90.6698 163.214 86.3685C160.712 83.6616 156.6 83.1836 152.933 83.5531C149.395 83.9106 145.752 84.9949 143.282 87.5573C139.406 91.5855 139.527 98.0878 141.402 103.353C143.278 108.618 146.591 113.273 148.511 118.522C150.053 122.743 150.102 128.511 146.129 130.607C142.547 132.495 138.35 130.105 134.507 128.832C129.691 127.237 123.9 127.651 120.189 131.105C116.474 134.559 116.028 141.399 120.072 144.463C118.048 145.937 117.068 148.704 117.711 151.126C118.357 153.544 120.586 155.459 123.076 155.728C126.474 156.098 129.78 153.68 133.145 154.278C135.037 154.616 136.619 155.857 138.354 156.684C140.089 157.512 142.358 157.857 143.776 156.56C144.563 155.841 144.909 154.772 145.366 153.813C147.8 148.732 153.768 146.234 156.704 141.427C162.395 132.105 156.539 117.872 155.853 107.923C155.628 104.654 155.917 100.923 158.443 98.8348C160.744 96.9351 163.504 95.4933 166.03 93.9149C166.247 94.2322 166.472 94.5535 166.696 94.8708Z" fill="#16C173"/>
<path d="M179.938 111.944C179.938 111.944 174.171 110.426 174.745 114.855C175.319 119.285 180.842 119.936 180.842 119.936L179.432 114.755L179.938 111.944Z" fill="#EAC2AB"/>
<path d="M167.853 90.5694C167.853 90.5694 169.267 91.3164 168.387 93.445C167.508 95.5776 163.311 100.445 163.09 98.9512C162.869 97.4572 159.861 98.6822 161.239 96.5496C162.616 94.4169 162.303 95.1278 163.825 92.694C165.287 90.3566 163.62 89.3605 164.484 88.3967C165.998 86.7139 167.158 89.71 167.853 90.5694Z" fill="#297373"/>
<path d="M196.228 134.675C204.228 136.957 203.168 137.422 209.208 143.146C214.337 148.009 221.221 158.941 223.879 165.492C225.558 169.628 230.679 173.572 233.012 177.388C234.948 180.552 240.302 179.42 242.105 182.669C242.366 183.135 242.635 183.617 243.057 183.942C243.816 184.529 241.872 185.689 242.784 185.994C243.872 186.36 246.615 190.934 247.205 191.918C248.362 193.858 246.864 191.814 246.736 194.083C246.563 197.131 247.406 198.027 245.868 200.252C243.932 203.051 243.129 206.445 242.354 209.706C241.695 212.485 241.422 216.208 239.362 218.317C237.35 220.377 234.229 220.98 231.362 220.747C225.667 220.281 219.923 217.277 216.313 212.839C211.967 207.493 211.457 200.449 207.967 194.706C204.77 189.444 199.947 185.508 196.328 180.577C192.537 175.408 190.115 169.436 187.697 163.544C184.922 156.785 181.328 150.712 181.894 143.138C182.151 139.712 183.023 136.169 185.332 133.631C187.645 131.097 192.926 133.736 196.228 134.675Z" fill="#297373"/>
<path d="M242.868 185.601C245.527 184.516 249.627 180.757 251.182 179.275C249.571 179.922 248.374 181.215 246.519 180.685C243.832 179.922 241.149 179.155 238.474 178.36C213.453 168.335 204.324 151.696 204.324 151.696C204.324 151.696 207.61 155.218 197.931 146.431C188.252 137.643 190.906 145.31 190.906 145.31C190.906 145.31 198.059 156.303 209.582 168.697C221.104 181.091 236.161 184.006 236.161 184.006C238.061 184.504 239.968 184.982 241.872 185.38C242.221 185.444 242.543 185.521 242.868 185.601Z" fill="#EAC2AB"/>
<path d="M207.718 148.11C207.718 148.11 193.625 127.278 187.404 135.784C181.183 144.29 200.726 164.255 200.726 164.255L210.738 150.15L207.718 148.11Z" fill="#1A181B"/>
<path fill-rule="evenodd" clip-rule="evenodd" d="M249.419 77.9666L249.993 79.3602L269.456 71.3358L268.881 69.9462C265.982 62.9179 259.258 58.998 253.897 61.207C251.214 62.3154 249.294 64.7211 248.483 67.9943C247.716 71.0989 248.049 74.6412 249.419 77.9666ZM255.045 63.9942C255.708 63.7171 256.407 63.5886 257.118 63.5886C260.158 63.5886 263.459 65.9702 265.455 69.7334L251.696 75.4042C251.005 73.107 250.897 70.7776 251.407 68.7213C251.981 66.4039 253.274 64.7252 255.045 63.9942Z" fill="#AAD2B5" fill-opacity="0.4"/>
<path d="M249.511 75.0749C246.322 76.3882 244.551 79.5048 245.579 81.9948L253.274 116.088C254.302 118.578 257.752 119.542 260.941 118.229L284.556 108.498L261.359 70.1912L249.511 75.0749Z" fill="#16C172"/>
<path d="M291.316 100.413L273.536 70.4723C272.508 67.9823 269.058 67.0184 265.869 68.3317L261.355 70.1912L284.552 108.498L287.38 107.333C290.573 106.02 292.344 102.903 291.316 100.413Z" fill="#297373"/>
<path d="M198.108 7.0886H157.44C156.191 7.0886 155.17 6.06848 155.17 4.81945V2.26916C155.17 1.02012 156.191 0 157.44 0H198.108C199.357 0 200.377 1.02012 200.377 2.26916V4.81945C200.377 6.06848 199.357 7.0886 198.108 7.0886Z" fill="#AAD2B5" fill-opacity="0.4"/>
<path d="M198.108 19.1171H157.44C156.191 19.1171 155.17 18.097 155.17 16.848V14.2977C155.17 13.0486 156.191 12.0285 157.44 12.0285H198.108C199.357 12.0285 200.377 13.0486 200.377 14.2977V16.848C200.377 18.097 199.357 19.1171 198.108 19.1171Z" fill="#AAD2B5" fill-opacity="0.4"/>
<path d="M198.108 31.1457H157.44C156.191 31.1457 155.17 30.1255 155.17 28.8765V26.3262C155.17 25.0772 156.191 24.0571 157.44 24.0571H198.108C199.357 24.0571 200.377 25.0772 200.377 26.3262V28.8765C200.377 30.1255 199.357 31.1457 198.108 31.1457Z" fill="#AAD2B5" fill-opacity="0.4"/>
<path d="M198.108 43.1742H157.44C156.191 43.1742 155.17 42.1541 155.17 40.905V38.3547C155.17 37.1057 156.191 36.0856 157.44 36.0856H198.108C199.357 36.0856 200.377 37.1057 200.377 38.3547V40.905C200.377 42.1541 199.357 43.1742 198.108 43.1742Z" fill="#AAD2B5" fill-opacity="0.4"/>
<path d="M149.571 221.911V221.911C144.487 221.911 140.326 217.751 140.326 212.666V212.666C140.326 207.582 144.487 203.421 149.571 203.421V203.421C154.656 203.421 158.817 207.582 158.817 212.666V212.666C158.817 217.751 154.656 221.911 149.571 221.911Z" fill="#AAD2B5" fill-opacity="0.4"/>
<path fill-rule="evenodd" clip-rule="evenodd" d="M153.708 201.63C154.748 202.019 155.777 202.212 156.761 202.212C158.11 202.212 159.383 201.846 160.484 201.123C164.271 198.654 164.749 192.649 161.544 187.741L160.721 186.48L146.985 195.457L147.808 196.718C149.315 199.023 151.411 200.766 153.708 201.63ZM154.765 198.81C153.471 198.324 152.254 197.445 151.234 196.272L159.761 190.705C161.227 193.854 160.905 197.256 158.841 198.605C157.753 199.316 156.303 199.388 154.765 198.81Z" fill="#AAD2B5" fill-opacity="0.4"/>
<path d="M161.556 190.079C163.701 188.677 164.56 186.159 163.468 184.484L153.13 160.672C152.037 158.998 149.387 158.773 147.238 160.174L131.354 170.548L153.588 195.284L161.556 190.079Z" fill="#16C173"/>
<path d="M127.539 177.38L144.66 196.762C145.752 198.437 148.403 198.662 150.552 197.26L153.588 195.28L131.354 170.544L129.454 171.785C127.306 173.187 126.446 175.705 127.539 177.38Z" fill="#11151C"/>
<path fill-rule="evenodd" clip-rule="evenodd" d="M161.379 166.777L161.817 168.215L181.95 162.078L181.512 160.64C180.464 157.198 178.476 154.246 175.918 152.335C173.215 150.318 170.199 149.676 167.428 150.519C164.656 151.367 162.512 153.584 161.395 156.76C160.335 159.777 160.331 163.335 161.379 166.777ZM168.307 153.399C168.805 153.246 169.323 153.17 169.849 153.17C171.251 153.17 172.725 153.708 174.114 154.744C175.813 156.013 177.207 157.881 178.127 160.098L163.889 164.435C163.419 162.086 163.532 159.757 164.235 157.757C165.026 155.507 166.472 153.957 168.307 153.399Z" fill="#AAD2B5" fill-opacity="0.4"/>
<path d="M161.745 163.901C158.443 164.905 156.387 167.837 157.17 170.416L161.592 205.087C162.379 207.666 165.721 208.951 169.022 207.947L193.457 200.505L174.002 160.17L161.745 163.901Z" fill="#16C172"/>
<path d="M200.955 193.099L186.099 161.604C185.312 159.026 181.97 157.74 178.669 158.744L173.998 160.166L193.453 200.501L196.376 199.609C199.682 198.605 201.738 195.673 200.955 193.099Z" fill="#297373"/>
<path d="M216.417 241.643H152.302C147.218 241.643 143.057 237.482 143.057 232.398V232.398C143.057 227.313 147.218 223.152 152.302 223.152H216.417C221.502 223.152 225.662 227.313 225.662 232.398V232.398C225.662 237.482 221.502 241.643 216.417 241.643Z" fill="#297373"/>
<path d="M198.477 221.024H170.239C165.154 221.024 160.994 216.863 160.994 211.778V211.778C160.994 206.694 165.154 202.533 170.239 202.533H198.477C203.561 202.533 207.722 206.694 207.722 211.778V211.778C207.726 216.863 203.561 221.024 198.477 221.024Z" fill="#11151C"/>
<path d="M259.495 241.35H239.848C234.763 241.35 230.603 237.189 230.603 232.104V232.104C230.603 227.02 234.763 222.859 239.848 222.859H259.495C264.58 222.859 268.74 227.02 268.74 232.104V232.104C268.744 237.189 264.584 241.35 259.495 241.35Z" fill="#16C173"/>
<path d="M179.878 328.674C185.23 328.674 189.569 324.335 189.569 318.983C189.569 313.631 185.23 309.292 179.878 309.292C174.526 309.292 170.187 313.631 170.187 318.983C170.187 324.335 174.526 328.674 179.878 328.674Z" fill="#16C173"/>
<path d="M179.878 325.835C183.662 325.835 186.729 322.767 186.729 318.983C186.729 315.199 183.662 312.131 179.878 312.131C176.094 312.131 173.026 315.199 173.026 318.983C173.026 322.767 176.094 325.835 179.878 325.835Z" fill="#AAD2B5" fill-opacity="0.4"/>
<path d="M248.539 328.674C253.891 328.674 258.23 324.335 258.23 318.983C258.23 313.631 253.891 309.292 248.539 309.292C243.187 309.292 238.848 313.631 238.848 318.983C238.848 324.335 243.187 328.674 248.539 328.674Z" fill="#16C173"/>
<path d="M248.539 325.835C252.323 325.835 255.391 322.767 255.391 318.983C255.391 315.199 252.323 312.131 248.539 312.131C244.755 312.131 241.687 315.199 241.687 318.983C241.687 322.767 244.755 325.835 248.539 325.835Z" fill="#AAD2B5" fill-opacity="0.4"/>
<path d="M170.106 306.28C168.596 306.28 151.576 305.971 148.114 292.372C146.816 287.279 143.941 271.552 140.615 253.338C135.904 227.558 129.45 192.248 127.418 188.392C124.302 182.48 121.603 181.316 111.458 181.496C101.253 181.669 63.5847 181.484 63.2031 181.48L63.2192 178.472C63.5967 178.472 101.229 178.661 111.406 178.488C121.796 178.319 126.169 179.569 130.081 186.99C132.165 190.95 136.989 216.763 143.575 252.796C146.893 270.953 149.76 286.632 151.029 291.629C154.001 303.304 170.006 303.264 170.175 303.272H268.744V306.28H170.187C170.171 306.28 170.143 306.28 170.106 306.28Z" fill="#16C173"/>
<path d="M272.379 243.88H140.463V240.872H270.054L283.287 190.244H129.169V187.235H287.187L272.379 243.88Z" fill="#16C173"/>
<rect x="164.502" y="189.095" width="3.00803" height="55.4097" transform="rotate(-14.549 164.502 189.095)" fill="#16C173"/>
<rect x="205.698" y="188.742" width="3.00814" height="52.6083" fill="#16C173"/>
<rect x="233.269" y="241.984" width="55.4123" height="3.00817" transform="rotate(-75.4635 233.269 241.984)" fill="#16C173"/>
<rect x="133.812" y="205.176" width="145.696" height="3.00814" fill="#16C173"/>
<rect x="137.282" y="223.237" width="138.543" height="3.00814" fill="#16C173"/>
</svg>
